# xmcd CD database file
#
# Track frame offsets:
#	150
#	21740
#	40109
#	65860
#	85341
#	113502
#	134701
#	149519
#	180434
#	212211
#
# Disc length: 3037 seconds
#
# Revision: 0
# Processed by: cddbd v1.5.2PL0 Copyright (c) Steve Scherf et al.
# Submitted via: CDex 1.51
#
DISCID=9b0bdb0a
DTITLE=Andrew Black and The Naturals - 14th and Crescent
DYEAR=2008
DGENRE=Blues
TTITLE0=Treat A Dog
TTITLE1=In The Ghetto
TTITLE2=Love Worth Having
TTITLE3=Heaven Help Us All
TTITLE4=Love Won't Let Me Wait
TTITLE5=Everyday I Have The Blues
TTITLE6=Suitcase Blues
TTITLE7=Red Clay
TTITLE8=Red Baron
TTITLE9=The World Is A Ghetto
EXTD=YEAR: 2008
EXTT0=
EXTT1=
EXTT2=
EXTT3=
EXTT4=
EXTT5=
EXTT6=
EXTT7=
EXTT8=
EXTT9=
PLAYORDER=
